<svg width="18" height="18" viewBox="0 0 18 18" fill="none" xmlns="http://www.w3.org/2000/svg">
<path d="M13.1248 8.95823C13.8308 8.25291 14.3438 7.3782 14.6149 6.41783C14.886 5.45745 14.9061 4.44357 14.6732 3.47323L16.7523 2.58156C16.8157 2.55438 16.8849 2.54337 16.9536 2.54951C17.0223 2.55566 17.0884 2.57877 17.146 2.61676C17.2036 2.65476 17.2508 2.70646 17.2835 2.76723C17.3162 2.82799 17.3332 2.89591 17.3332 2.96489V14.8332L11.4998 17.3332L6.49984 14.8332L1.24734 17.0841C1.18393 17.1112 1.11477 17.1223 1.04606 17.1161C0.977347 17.11 0.911237 17.0869 0.85366 17.0489C0.796083 17.0109 0.748842 16.9592 0.716176 16.8984C0.683511 16.8376 0.666443 16.7697 0.666504 16.7007V4.83323L3.274 3.71573C3.09054 4.65371 3.14059 5.62242 3.41976 6.5365C3.69892 7.45058 4.19863 8.28196 4.87484 8.95739L8.99984 13.0832L13.1248 8.95823ZM11.9465 7.77989L8.99984 10.7249L6.05317 7.77906C5.47056 7.1963 5.07383 6.45387 4.91315 5.64564C4.75247 4.83742 4.83505 3.9997 5.15044 3.2384C5.46584 2.47711 5.9999 1.82643 6.68508 1.36864C7.37026 0.910847 8.1758 0.666504 8.99984 0.666504C9.82388 0.666504 10.6294 0.910847 11.3146 1.36864C11.9998 1.82643 12.5338 2.47711 12.8492 3.2384C13.1646 3.9997 13.2472 4.83742 13.0865 5.64564C12.9258 6.45387 12.5291 7.1963 11.9465 7.77906V7.77989Z" fill="#FF5631"/>
</svg>
