<svg width="32" height="32" viewBox="0 0 32 32" fill="none" xmlns="http://www.w3.org/2000/svg">
<rect width="32" height="32" fill="white"/>
<path d="M15.5007 5C15.1385 5.00001 14.7866 5.12107 14.501 5.34394C14.2155 5.56682 14.0125 5.87873 13.9245 6.23013L11.591 15.5625H17.1875C17.403 15.5625 17.6097 15.6481 17.762 15.8005C17.9144 15.9529 18 16.1595 18 16.375C18 16.5905 17.9144 16.7972 17.762 16.9495C17.6097 17.1019 17.403 17.1875 17.1875 17.1875H11.1848L10.3723 20.4375H18.4062C18.6217 20.4375 18.8284 20.5231 18.9808 20.6755C19.1331 20.8279 19.2188 21.0345 19.2188 21.25C19.2188 21.4655 19.1331 21.6722 18.9808 21.8245C18.8284 21.9769 18.6217 22.0625 18.4062 22.0625H9.966L8.94875 26.125H5.8125C5.59701 26.125 5.39035 26.2106 5.23798 26.363C5.0856 26.5154 5 26.722 5 26.9375C5 27.153 5.0856 27.3597 5.23798 27.512C5.39035 27.6644 5.59701 27.75 5.8125 27.75H26.9375C27.153 27.75 27.3597 27.6644 27.512 27.512C27.6644 27.3597 27.75 27.153 27.75 26.9375C27.75 26.722 27.6644 26.5154 27.512 26.363C27.3597 26.2106 27.153 26.125 26.9375 26.125H23.7996L18.8271 6.23013C18.739 5.87819 18.5356 5.56587 18.2493 5.34294C17.9631 5.12001 17.6104 4.99929 17.2476 5H15.5007Z" fill="#FF5631"/>
</svg>
