<svg width="32" height="32" viewBox="0 0 32 32" fill="none" xmlns="http://www.w3.org/2000/svg">
<path fill-rule="evenodd" clip-rule="evenodd" d="M16 9.33325C14.2319 9.33325 12.5362 10.0356 11.286 11.2859C10.0358 12.5361 9.33337 14.2318 9.33337 15.9999C9.33337 17.768 10.0358 19.4637 11.286 20.714C12.5362 21.9642 14.2319 22.6666 16 22.6666C17.7682 22.6666 19.4638 21.9642 20.7141 20.714C21.9643 19.4637 22.6667 17.768 22.6667 15.9999C22.6667 14.2318 21.9643 12.5361 20.7141 11.2859C19.4638 10.0356 17.7682 9.33325 16 9.33325ZM12 15.9999C12 17.0608 12.4215 18.0782 13.1716 18.8283C13.9218 19.5785 14.9392 19.9999 16 19.9999C17.0609 19.9999 18.0783 19.5785 18.8285 18.8283C19.5786 18.0782 20 17.0608 20 15.9999C20 14.9391 19.5786 13.9216 18.8285 13.1715C18.0783 12.4213 17.0609 11.9999 16 11.9999C14.9392 11.9999 13.9218 12.4213 13.1716 13.1715C12.4215 13.9216 12 14.9391 12 15.9999Z" fill="#29292D"/>
<path d="M24.0001 6.6665C23.6465 6.6665 23.3073 6.80698 23.0573 7.05703C22.8072 7.30708 22.6667 7.64622 22.6667 7.99984C22.6667 8.35346 22.8072 8.6926 23.0573 8.94265C23.3073 9.19269 23.6465 9.33317 24.0001 9.33317C24.3537 9.33317 24.6928 9.19269 24.9429 8.94265C25.1929 8.6926 25.3334 8.35346 25.3334 7.99984C25.3334 7.64622 25.1929 7.30708 24.9429 7.05703C24.6928 6.80698 24.3537 6.6665 24.0001 6.6665Z" fill="#29292D"/>
<path fill-rule="evenodd" clip-rule="evenodd" d="M6.66671 1.33325C5.25222 1.33325 3.89567 1.89516 2.89547 2.89535C1.89528 3.89554 1.33337 5.2521 1.33337 6.66658V25.3333C1.33337 26.7477 1.89528 28.1043 2.89547 29.1045C3.89567 30.1047 5.25222 30.6666 6.66671 30.6666H25.3334C26.7479 30.6666 28.1044 30.1047 29.1046 29.1045C30.1048 28.1043 30.6667 26.7477 30.6667 25.3333V6.66658C30.6667 5.2521 30.1048 3.89554 29.1046 2.89535C28.1044 1.89516 26.7479 1.33325 25.3334 1.33325H6.66671ZM25.3334 3.99992H6.66671C5.95946 3.99992 5.28119 4.28087 4.78109 4.78097C4.28099 5.28106 4.00004 5.95934 4.00004 6.66658V25.3333C4.00004 26.0405 4.28099 26.7188 4.78109 27.2189C5.28119 27.719 5.95946 27.9999 6.66671 27.9999H25.3334C26.0406 27.9999 26.7189 27.719 27.219 27.2189C27.7191 26.7188 28 26.0405 28 25.3333V6.66658C28 5.95934 27.7191 5.28106 27.219 4.78097C26.7189 4.28087 26.0406 3.99992 25.3334 3.99992Z" fill="#29292D"/>
</svg>
