<svg width="30" height="30" viewBox="0 0 30 30" fill="none" xmlns="http://www.w3.org/2000/svg">
<path fill-rule="evenodd" clip-rule="evenodd" d="M25.2106 4.30837C23.849 2.93842 22.2292 1.85222 20.445 1.11269C18.6607 0.373147 16.7474 -0.00503264 14.816 5.05702e-05C6.71945 5.05702e-05 0.122954 6.5904 0.122954 14.6869C0.116818 17.265 0.793002 19.7988 2.08285 22.031L0 29.6431L7.79039 27.5972C9.94454 28.7706 12.358 29.3865 14.8111 29.3886H14.8172C22.915 29.3886 29.5041 22.7995 29.509 14.6968C29.509 10.7733 27.982 7.08468 25.2106 4.30714V4.30837ZM14.816 26.9062H14.8111C12.6244 26.9061 10.4779 26.3189 8.59574 25.2057L8.14942 24.9413L3.52387 26.1524L4.75833 21.6462L4.47062 21.1851C3.24673 19.2389 2.59878 16.986 2.60171 14.6869C2.60171 7.95889 8.08179 2.48373 14.8209 2.48373C16.4248 2.47972 18.0135 2.79389 19.495 3.40806C20.9766 4.02222 22.3217 4.92417 23.4523 6.0617C24.5885 7.19377 25.4892 8.53974 26.1022 10.0219C26.7153 11.504 27.0286 13.0929 27.0241 14.6968C27.0241 21.431 21.5441 26.9062 14.8148 26.9062H14.816ZM21.5109 17.7608C21.1457 17.5788 19.3395 16.6911 19.0038 16.5706C18.6682 16.4452 18.4223 16.3874 18.1776 16.7526C17.9317 17.1214 17.2308 17.9489 17.0157 18.1936C16.8042 18.4334 16.5878 18.4678 16.2226 18.2846C15.8537 18.1026 14.6721 17.7129 13.2692 16.4599C12.1786 15.4886 11.4397 14.2837 11.2282 13.9185C11.0118 13.5496 11.2036 13.3529 11.3868 13.1685C11.554 13.0062 11.7557 12.7418 11.9389 12.5254C12.1208 12.3152 12.1848 12.1615 12.3077 11.9156C12.4282 11.6709 12.3667 11.4545 12.2745 11.2725C12.1835 11.0905 11.4495 9.27942 11.1421 8.54415C10.8433 7.82855 10.5409 7.92938 10.3159 7.91585C10.1044 7.90602 9.85971 7.90602 9.61503 7.90602C9.36912 7.90602 8.97075 7.997 8.63385 8.36709C8.29819 8.73227 7.35144 9.62123 7.35144 11.4262C7.35144 13.2324 8.66705 14.9796 8.85148 15.2255C9.03346 15.4652 11.4397 19.1723 15.1222 20.7634C15.9976 21.1421 16.6788 21.3683 17.2124 21.5367C18.0915 21.8146 18.8932 21.7765 19.5276 21.6843C20.2334 21.5798 21.6978 20.7966 22.0051 19.9371C22.3088 19.0826 22.3088 18.3473 22.2166 18.1936C22.1256 18.0399 21.881 17.9477 21.5109 17.7608Z" fill="#29292D"/>
</svg>
